# File created by Blade
# Date/Time:  Thu Sep 25 15:55:53 2014
# Frame Rate: 120.000 fps
#------------------------------------------------------
:FULLY-SPECIFIED
:DEGREES
566
root -4.870021 33.079051 1.001285 17.054225 -8.801997 6.068605
Spine -6.233248 12.597069 -0.520865
Head -22.955334 -4.867171 5.694066
LeftShoulder -7.858033 28.081203 9.259539
LeftArm 13.279130 27.330354 -76.068087
LeftForeArm -4.701870 -0.000000 17.536182
LeftHand -23.513900 0.000000 2.898874
LeftHandThumb1 -26.253704 0.000000 33.147579
RightShoulder -11.999234 9.006003 -26.668640
RightArm -13.913526 -15.528636 83.499418
RightForeArm -21.594625 -0.000000 35.904864
RightHand -1.251018 -0.000000 1.743883
RightHandThumb1 -24.326973 -0.000000 -32.862282
LeftUpLeg -23.256440 4.027817 -3.014648
LeftLeg 13.223840 -0.000000 -0.000000
LeftFoot -6.737555 11.356523 -27.772198
LeftToeBase -1.224541 -0.000000 0.000000
RightUpLeg -22.176969 -3.824868 0.818925
RightLeg 15.170739 -0.000000 -0.000000
RightFoot -14.134378 0.527899 -4.719024
RightToeBase -4.808056 -0.000000 0.000000
567
root -4.870956 33.090537 0.896170 17.839736 -8.611777 6.071762
Spine -6.145510 12.537958 -0.579531
Head -23.829751 -4.648747 5.708285
LeftShoulder -7.818484 27.859101 9.184575
LeftArm 13.724029 27.257608 -75.817378
LeftForeArm -4.863369 -0.000000 17.228885
LeftHand -23.390002 -0.000000 2.688918
LeftHandThumb1 -26.253704 0.000000 33.147579
RightShoulder -11.570496 9.452428 -26.808545
RightArm -13.709892 -15.297573 83.592597
RightForeArm -21.589635 -0.000000 35.805709
RightHand -1.488940 -0.000000 1.150226
RightHandThumb1 -24.326973 -0.000000 -32.862282
LeftUpLeg -24.168943 3.739749 -2.969866
LeftLeg 13.051773 -0.000000 -0.000000
LeftFoot -6.392590 11.515187 -27.606889
LeftToeBase -1.268009 -0.000000 0.000000
RightUpLeg -23.162278 -3.980610 0.957519
RightLeg 15.191145 -0.000000 -0.000000
RightFoot -13.928656 0.588514 -4.453104
RightToeBase -4.765660 -0.000000 0.000000
568
root -4.872333 33.100206 0.785078 18.675534 -8.384375 6.073556
Spine -6.079956 12.568962 -0.614131
Head -24.757039 -4.640182 5.672599
LeftShoulder -7.591763 27.588935 9.186360
LeftArm 14.196968 27.169130 -75.564633
LeftForeArm -5.067191 -0.000000 16.892853
LeftHand -23.289981 0.000000 2.452998
LeftHandThumb1 -26.253704 0.000000 33.147579
RightShoulder -11.181601 9.800004 -26.980142
RightArm -13.467585 -14.963928 83.625896
RightForeArm -21.461369 -0.000000 35.758506
RightHand -1.456648 -0.000000 1.127133
RightHandThumb1 -24.326973 -0.000000 -32.862282
LeftUpLeg -25.130637 3.420017 -2.903241
LeftLeg 12.852881 -0.000000 -0.000000
LeftFoot -6.055478 11.654462 -27.431091
LeftToeBase -1.185156 -0.000000 0.000000
RightUpLeg -24.203603 -4.123364 1.101385
RightLeg 15.215532 -0.000000 -0.000000
RightFoot -13.756048 0.631554 -4.108201
RightToeBase -4.655216 -0.000000 0.000000
569
root -4.871350 33.114859 0.655367 19.635898 -8.226661 6.051169
Spine -6.074697 12.739693 -0.639710
Head -25.748490 -4.665356 5.621736
LeftShoulder -7.322344 27.319391 9.167515
LeftArm 14.849008 27.104450 -75.200730
LeftForeArm -5.277894 -0.000000 16.474317
LeftHand -23.138257 -0.000000 2.275761
LeftHandThumb1 -26.253704 0.000000 33.147579
RightShoulder -10.831638 10.151752 -27.195938
RightArm -13.230784 -14.559225 83.599434
RightForeArm -21.266755 0.000000 35.816705
RightHand -1.477593 -0.000000 1.028194
RightHandThumb1 -24.326973 -0.000000 -32.862282
LeftUpLeg -26.242941 3.158454 -2.836484
LeftLeg 12.642538 -0.000000 -0.000000
LeftFoot -5.651209 11.840568 -27.273168
LeftToeBase -1.198047 -0.000000 0.000000
RightUpLeg -25.404953 -4.073314 1.226796
RightLeg 15.242064 -0.000000 -0.000000
RightFoot -13.470817 0.520750 -3.792995
RightToeBase -4.675705 -0.000000 0.000000
570
root -4.868122 33.126291 0.526993 20.621828 -7.930300 6.085220
Spine -6.089440 12.780166 -0.647409
Head -26.742533 -4.684027 5.551321
LeftShoulder -6.994180 26.902417 9.152563
LeftArm 15.355421 26.944158 -74.898549
LeftForeArm -5.254530 0.000000 16.089826
LeftHand -23.105681 0.000000 1.924757
LeftHandThumb1 -26.253704 0.000000 33.147579
RightShoulder -10.438880 10.476778 -27.439809
RightArm -12.987054 -14.212517 83.524963
RightForeArm -21.122351 -0.000000 35.900234
RightHand -1.454939 0.000000 1.055026
RightHandThumb1 -24.326973 -0.000000 -32.862282
LeftUpLeg -27.368863 2.713710 -2.758661
LeftLeg 12.378121 -0.000000 -0.000000
LeftFoot -5.246026 12.087799 -27.093833
LeftToeBase -1.207672 -0.000000 0.000000
RightUpLeg -26.613350 -4.307436 1.396847
RightLeg 15.230179 -0.000000 -0.000000
RightFoot -13.227185 0.543732 -3.659302
RightToeBase -4.776733 -0.000000 0.000000
